<?xml version="1.0" standalone="no"?>
<!DOCTYPE svg PUBLIC "-//W3C//DTD SVG 20010904//EN"
 "http://www.w3.org/TR/2001/REC-SVG-20010904/DTD/svg10.dtd">
<svg version="1.0" xmlns="http://www.w3.org/2000/svg"
 width="600.000000pt" height="600.000000pt" viewBox="0 0 600.000000 600.000000"
 preserveAspectRatio="xMidYMid meet">
<metadata>
Created by potrace 1.11, written by Peter Selinger 2001-2013
</metadata>
<g transform="translate(0.000000,600.000000) scale(0.100000,-0.100000)"
fill="#000000" stroke="none">
<path d="M286 5985 c-12 -6 -28 -9 -35 -7 -8 3 -11 0 -7 -6 6 -11 -21 -25 -34
-17 -4 3 -10 -2 -14 -10 -3 -8 -11 -15 -17 -15 -14 0 -59 -47 -59 -61 0 -5 -9
-9 -21 -9 -11 0 -17 -4 -14 -10 3 -5 1 -10 -5 -10 -6 0 -9 -4 -6 -9 3 -5 -1
-11 -9 -15 -8 -3 -15 -15 -15 -26 0 -25 -24 -52 -35 -42 -5 4 -4 0 0 -8 14
-23 13 -51 -2 -57 -9 -4 -10 -9 -3 -18 5 -6 6 -15 2 -19 -4 -4 -7 -1044 -8
-2311 0 -2081 1 -2303 15 -2293 13 10 14 10 4 -2 -15 -16 -18 -64 -4 -56 4 3
7 -8 5 -24 -2 -20 2 -33 14 -39 13 -8 14 -10 2 -11 -13 0 -13 -2 0 -9 8 -6 17
-8 20 -6 4 2 7 -2 7 -10 0 -8 -4 -12 -9 -9 -5 4 -4 -3 3 -14 7 -12 17 -18 21
-16 7 5 12 -10 9 -28 0 -5 7 -8 16 -8 9 0 14 -3 10 -6 -7 -7 17 -34 31 -34 6
0 13 -7 16 -16 3 -8 10 -12 16 -9 5 3 10 1 10 -4 0 -6 7 -11 15 -11 8 0 15 -5
15 -12 0 -6 3 -8 7 -5 3 4 15 -1 26 -10 11 -10 17 -12 13 -6 -5 9 -2 11 9 7 9
-4 14 -13 11 -20 -3 -8 0 -11 9 -7 8 3 12 10 8 17 -4 8 -2 8 7 -1 7 -6 19 -9
28 -6 8 4 13 2 9 -3 -6 -11 2957 -13 2968 -3 3 4 -4 16 -16 28 -13 12 -19 21
-13 21 5 1 -2 7 -16 15 -14 8 -20 14 -14 15 6 0 11 7 11 15 0 11 -4 12 -14 4
-10 -9 -13 -7 -13 10 0 13 -7 21 -17 22 -12 0 -13 2 -5 6 10 4 8 9 -5 21 -10
10 -25 26 -33 36 -13 18 -13 19 0 11 8 -4 0 7 -17 25 -18 18 -33 39 -33 47 0
8 -4 11 -10 8 -6 -3 -10 1 -10 9 0 9 -4 16 -10 16 -5 0 -10 7 -10 15 0 9 -7
18 -15 21 -8 4 -15 12 -15 19 0 6 -8 21 -17 32 -18 19 -39 19 -1339 19 l-1321
-1 2 30 c1 17 -3 39 -8 49 -8 16 -6 18 8 12 13 -5 15 -3 8 6 -5 7 -9 22 -9 33
1 11 -3 23 -9 27 -5 4 -1 8 10 8 19 1 19 1 2 11 -14 8 -16 14 -6 25 6 8 8 14
3 14 -5 0 0 8 11 16 l20 16 -20 -6 c-17 -5 -20 -1 -18 27 1 17 2 33 3 35 2 1
3 10 4 20 1 9 5 23 9 29 5 8 3 11 -5 8 -9 -4 -14 2 -14 15 0 11 3 20 6 20 3 0
6 9 7 20 1 13 -2 18 -10 13 -9 -5 -9 -3 0 8 6 8 13 19 15 24 1 6 7 9 11 7 5
-1 6 2 2 7 -3 6 -11 8 -18 5 -8 -3 -11 6 -10 28 1 18 2 35 3 38 7 17 3 86 -5
92 -5 4 -1 8 10 8 19 1 19 1 2 11 -14 8 -16 14 -6 25 6 8 8 14 3 14 -5 0 0 8
11 16 20 16 20 16 -3 9 -22 -6 -23 -5 -13 14 7 12 8 21 4 21 -4 0 -1 5 7 10
13 8 12 10 -2 10 -19 0 -24 15 -9 24 5 4 8 14 6 24 -1 9 2 22 7 29 6 7 5 14
-3 19 -8 4 -9 3 -5 -4 4 -7 2 -12 -3 -12 -13 0 -14 13 -3 24 10 11 9 30 -3 38
-6 5 -1 8 10 8 19 1 19 1 2 11 -12 7 -15 15 -9 22 4 7 8 19 7 27 0 8 4 18 10
22 6 5 3 8 -7 8 -19 0 -24 15 -8 25 6 3 6 15 0 30 -5 14 -5 27 -1 30 5 3 8 13
6 23 -1 9 2 23 8 30 7 9 6 11 -4 7 -10 -4 -15 1 -15 15 0 11 3 20 6 20 3 0 6
9 7 20 1 13 -2 18 -10 13 -7 -4 -5 1 3 12 8 10 15 21 15 24 0 3 4 5 8 3 5 -1
6 2 2 7 -3 6 -11 8 -18 5 -8 -3 -11 6 -10 28 1 18 2 34 3 36 6 7 5 30 -2 49
-4 12 -3 25 1 28 5 3 8 13 6 23 -1 9 2 23 8 30 7 9 6 11 -4 7 -10 -4 -15 1
-15 15 0 11 3 20 6 20 3 0 6 9 7 20 1 13 -2 18 -9 14 -7 -5 -8 -2 -2 7 5 8 9
19 9 24 1 6 7 9 14 7 7 -1 10 2 6 7 -3 6 -11 8 -18 5 -12 -4 -16 41 -6 62 3 5
5 20 4 34 0 14 4 28 10 32 6 5 3 8 -7 8 -19 0 -24 15 -9 24 5 4 8 14 6 24 -1
9 2 22 7 29 6 7 5 14 -3 19 -8 4 -9 3 -5 -4 4 -7 2 -12 -3 -12 -13 0 -14 13
-3 24 10 11 9 30 -3 38 -6 5 -1 8 10 8 19 1 19 1 2 11 -12 7 -15 15 -9 22 4 7
8 19 7 27 0 8 4 18 10 22 6 5 3 8 -7 8 -19 0 -23 11 -11 24 11 11 9 70 -2 78
-5 4 -1 8 10 8 19 1 19 1 2 11 -14 8 -16 14 -6 25 6 8 8 14 3 14 -5 0 0 8 11
16 l20 16 -20 -6 c-17 -5 -20 -1 -18 27 1 17 2 33 3 35 2 1 3 10 4 20 1 9 5
23 9 29 5 8 3 11 -5 8 -9 -4 -14 2 -14 15 0 11 3 20 6 20 3 0 6 9 7 20 1 13
-2 18 -10 13 -7 -4 -5 1 3 12 8 10 15 21 15 24 0 3 4 5 8 3 5 -1 6 2 2 7 -3 6
-11 8 -18 5 -8 -3 -11 6 -10 28 1 18 2 35 3 38 7 17 3 86 -5 92 -5 4 -1 8 10
8 19 1 19 1 2 11 -14 8 -16 14 -6 25 6 8 8 14 3 14 -5 0 0 8 11 16 20 16 20
16 -3 9 -22 -6 -23 -5 -13 14 7 12 8 21 4 21 -4 0 -1 5 7 10 13 8 12 10 -2 10
-19 0 -24 15 -9 24 5 4 8 14 6 24 -1 9 2 22 7 29 6 7 5 14 -3 19 -8 4 -9 3 -5
-4 4 -7 2 -12 -3 -12 -13 0 -14 13 -3 24 10 11 9 30 -3 38 -6 5 -1 8 10 8 19
1 19 1 2 11 -12 7 -15 15 -9 22 4 7 8 19 7 27 0 8 4 18 10 22 6 5 3 8 -7 8
-19 0 -24 15 -8 25 6 3 6 15 0 30 -5 14 -5 27 -1 30 5 3 8 13 6 23 -1 9 2 23
8 30 7 9 6 11 -4 7 -10 -4 -15 1 -15 15 0 11 3 20 6 20 3 0 6 9 7 20 1 13 -2
18 -9 14 -7 -5 -8 -2 -2 7 5 8 9 19 9 24 1 6 7 9 14 7 7 -1 10 2 6 7 -3 6 -11
8 -18 5 -8 -3 -11 6 -10 28 1 18 2 34 3 36 6 7 5 30 -2 49 -4 12 -3 25 1 28 5
3 8 13 6 23 -1 9 2 23 8 30 7 9 6 11 -4 7 -10 -4 -15 1 -15 15 0 11 3 20 6 20
3 0 6 9 7 20 1 13 -2 18 -9 14 -7 -5 -8 -2 -2 7 5 8 9 19 9 24 1 6 7 9 14 7 7
-1 10 2 6 7 -3 6 -11 8 -18 5 -8 -3 -11 6 -10 28 1 18 2 34 3 36 2 1 3 14 4
30 1 15 5 32 9 39 4 6 2 15 -4 19 -8 4 -9 3 -5 -4 4 -7 2 -12 -3 -12 -15 0
-14 13 3 36 8 10 18 16 22 12 4 -4 14 -2 22 5 10 8 13 8 9 1 -4 -7 0 -15 9
-18 8 -3 13 -2 10 3 -8 12 20 22 39 15 8 -4 15 -11 16 -18 0 -6 4 -2 9 9 5 11
9 14 9 7 1 -7 5 -11 10 -7 5 3 13 1 16 -5 5 -8 11 -7 21 1 8 6 14 8 14 4 0 -4
6 -2 14 4 11 9 16 9 22 0 5 -8 3 -9 -6 -4 -9 5 -11 4 -6 -4 6 -9 11 -9 22 0 8
6 14 8 14 4 0 -4 8 -1 17 6 11 10 14 10 9 2 -4 -8 -2 -13 8 -13 8 0 17 4 21
10 6 10 36 2 47 -14 5 -7 8 -3 8 9 0 11 4 15 8 10 10 -14 74 -17 66 -3 -5 7
-2 8 5 3 23 -13 82 -15 74 -2 -5 9 -3 9 8 0 12 -10 18 -10 28 0 11 9 14 9 18
0 6 -16 33 -17 33 -1 0 6 7 3 16 -8 8 -10 13 -14 10 -8 -7 15 21 27 30 13 4
-7 10 -6 19 1 9 8 17 7 28 -4 12 -13 17 -13 35 0 14 9 23 11 27 4 5 -8 11 -8
20 0 15 13 47 2 39 -14 -3 -6 1 -3 8 6 13 15 15 15 26 0 7 -9 10 -11 6 -3 -5
11 -3 13 9 8 10 -4 17 -1 17 6 0 7 3 8 8 2 11 -15 32 -17 32 -2 1 7 6 5 14 -6
10 -12 16 -15 21 -7 5 8 11 8 21 -1 12 -10 13 -9 7 7 -6 16 -4 17 8 7 12 -10
18 -10 28 0 9 9 14 9 21 -2 7 -12 11 -12 23 -2 11 8 17 9 22 1 5 -8 11 -7 23
2 14 11 15 10 9 -6 -6 -16 -5 -17 8 -6 8 7 15 9 15 5 0 -4 6 -2 14 4 9 7 17 8
20 2 7 -10 24 -10 43 2 6 4 14 3 18 -3 4 -6 12 -7 18 -3 18 11 38 12 31 2 -7
-12 3 -11 28 2 15 8 19 8 13 0 -7 -13 35 -9 57 5 8 5 9 2 5 -10 -5 -12 -3 -15
6 -9 6 4 21 8 32 8 11 0 26 5 34 9 10 6 12 5 7 -2 -8 -13 6 -17 18 -5 10 10
46 11 46 1 0 -5 8 -4 18 1 13 7 23 6 32 -2 10 -9 14 -9 17 1 4 10 8 10 19 1
11 -9 14 -8 14 2 0 10 2 11 8 2 8 -12 29 -13 49 0 6 4 14 3 18 -3 4 -6 12 -7
18 -3 17 10 47 11 41 1 -7 -11 3 -10 26 2 13 7 21 7 25 0 3 -5 11 -10 16 -10
6 0 7 5 3 11 -4 8 0 8 15 0 16 -9 21 -9 21 1 0 9 3 9 8 2 9 -13 52 -13 52 1 0
5 4 4 9 -3 11 -17 21 -17 32 0 7 11 9 11 9 -1 0 -10 3 -11 14 -2 11 10 16 9
24 -5 8 -15 9 -15 15 0 5 14 11 15 27 6 15 -8 20 -8 20 2 0 9 3 9 12 0 7 -7
17 -8 30 -1 14 8 18 6 18 -6 0 -15 1 -15 16 0 12 12 19 13 30 4 11 -9 14 -9
14 1 0 10 3 10 15 0 12 -10 15 -10 15 1 0 12 2 12 9 0 7 -10 10 -11 16 -1 6
10 11 9 22 -5 7 -11 13 -14 13 -8 0 15 47 22 59 10 8 -8 11 -7 11 2 0 10 3 11
14 2 11 -9 15 -9 19 1 4 10 6 10 6 -1 1 -11 4 -11 16 -1 9 8 15 8 15 2 0 -11
44 -7 63 5 6 4 7 1 2 -6 -6 -10 -3 -11 13 -2 14 8 23 8 27 1 5 -8 11 -7 21 1
11 9 14 9 14 -1 0 -9 4 -9 13 -2 8 7 18 7 27 2 8 -5 21 -5 32 1 13 7 18 6 18
-2 0 -8 4 -9 13 0 10 8 17 7 25 -1 9 -9 12 -9 12 1 0 10 3 11 14 2 11 -9 15
-9 19 1 4 10 6 10 6 -1 1 -11 4 -11 16 -1 11 9 15 9 15 1 0 -9 5 -9 20 -1 15
8 20 8 20 -1 0 -7 5 -8 13 -3 15 11 38 11 55 1 7 -5 12 -3 12 4 0 10 3 10 11
2 7 -7 21 -8 40 -3 19 6 29 5 29 -2 0 -7 4 -7 13 0 8 7 18 7 27 2 8 -5 21 -5
31 1 11 5 20 5 24 0 3 -6 17 -6 35 -1 20 6 30 5 30 -2 0 -7 4 -7 13 0 8 7 18
7 27 2 8 -5 21 -5 31 1 11 5 20 5 24 0 3 -6 17 -6 35 -1 20 6 30 5 30 -2 0 -7
4 -7 13 0 8 7 18 7 27 2 8 -5 21 -5 31 1 11 6 20 5 24 -1 4 -6 15 -6 30 0 14
5 25 6 25 2 0 -4 9 -8 20 -8 11 0 20 4 20 9 0 5 7 4 15 -3 11 -9 15 -9 15 -1
0 9 5 9 20 1 15 -8 20 -8 20 1 0 8 4 8 13 1 8 -7 18 -7 27 -2 8 5 21 5 32 -1
10 -5 18 -6 18 -2 0 4 11 8 25 8 14 0 25 -4 25 -9 0 -5 6 -3 14 3 11 9 16 9
21 0 6 -8 10 -7 16 2 7 12 9 12 9 0 0 -11 3 -11 15 -1 9 7 15 8 15 2 0 -6 13
-7 34 -2 18 4 41 3 50 -2 9 -5 16 -5 16 0 0 10 36 9 46 -1 4 -3 16 -2 27 4 15
8 18 8 12 -1 -6 -9 -2 -9 14 -1 16 9 21 9 21 0 0 -8 4 -8 15 1 8 7 15 8 15 3
0 -11 29 -11 46 -1 5 4 16 3 23 -2 8 -4 26 -4 41 0 15 4 33 4 40 0 7 -5 24 -4
37 1 15 5 23 5 23 -2 0 -6 7 -6 20 1 11 6 20 7 20 2 0 -9 53 -8 69 3 6 3 11 1
11 -5 0 -7 6 -8 18 -1 10 6 24 6 32 1 8 -5 19 -6 24 -2 16 9 46 10 52 0 3 -4
14 -3 25 2 11 7 19 7 19 1 0 -5 12 -8 27 -6 25 3 26 2 8 -11 -13 -10 -14 -14
-5 -14 11 0 11 -3 2 -12 -17 -17 -15 -33 3 -18 12 10 13 7 5 -19 -5 -17 -6
-31 -2 -31 4 0 0 -5 -8 -10 -13 -8 -13 -10 0 -10 11 0 11 -3 2 -12 -15 -15
-15 -28 -1 -28 5 0 7 5 3 12 -4 7 -3 8 5 4 6 -4 8 -13 4 -19 -4 -7 -8 -21 -9
-32 0 -11 -4 -31 -9 -45 -7 -23 -7 -24 10 -10 17 14 18 14 5 -10 -19 -35 -20
-62 -2 -55 11 4 12 2 5 -7 -5 -7 -9 -20 -8 -28 1 -8 -3 -24 -8 -35 -10 -18 -9
-19 8 -5 17 14 18 14 6 -7 -6 -13 -8 -23 -4 -23 4 0 1 -5 -7 -10 -13 -8 -13
-10 0 -10 11 0 11 -3 2 -12 -15 -15 -15 -28 -1 -28 5 0 7 5 3 12 -4 7 -3 8 5
4 6 -4 8 -13 4 -19 -4 -7 -8 -21 -9 -32 0 -11 -4 -31 -9 -45 -7 -23 -7 -24 10
-10 17 14 18 14 5 -10 -19 -35 -20 -62 -2 -55 11 4 12 2 5 -7 -5 -7 -9 -20 -8
-28 1 -8 -3 -24 -8 -35 -10 -18 -9 -19 8 -5 17 14 18 14 6 -7 -6 -13 -8 -23
-4 -23 4 0 1 -5 -7 -10 -13 -8 -13 -10 0 -10 11 0 11 -3 2 -12 -15 -15 -15
-28 -1 -28 5 0 7 5 3 12 -4 7 -3 8 5 4 6 -4 8 -13 4 -19 -4 -7 -8 -21 -9 -32
0 -11 -4 -31 -9 -45 -7 -23 -7 -24 10 -10 17 14 18 14 5 -10 -19 -35 -20 -62
-2 -55 11 4 12 2 5 -7 -5 -7 -9 -20 -8 -28 1 -8 -3 -24 -8 -35 -10 -18 -9 -19
8 -5 17 14 18 14 6 -7 -6 -13 -8 -23 -4 -23 4 0 1 -5 -7 -10 -13 -8 -13 -10 0
-10 11 0 11 -3 2 -12 -15 -15 -15 -28 -1 -28 5 0 7 5 3 12 -4 7 -3 8 5 4 6 -4
8 -13 4 -19 -4 -7 -8 -21 -9 -32 0 -11 -4 -31 -9 -45 -7 -23 -7 -24 10 -10 17
14 18 14 5 -10 -19 -35 -20 -62 -2 -55 11 4 12 2 5 -7 -5 -7 -9 -20 -8 -28 1
-8 -3 -24 -8 -35 -10 -18 -9 -19 8 -5 17 14 18 14 6 -7 -6 -13 -8 -23 -4 -23
4 0 1 -5 -7 -10 -13 -8 -13 -10 0 -10 11 0 11 -3 2 -12 -15 -15 -15 -28 -1
-28 5 0 7 5 3 12 -4 7 -3 8 5 4 6 -4 8 -13 4 -19 -4 -7 -8 -21 -9 -32 0 -11
-4 -31 -9 -45 -7 -23 -7 -24 11 -10 18 14 18 14 3 -10 -20 -31 -9 -72 18 -68
11 2 17 -2 15 -10 -2 -9 2 -11 10 -5 18 11 30 11 53 0 17 -9 18 -8 8 4 -9 11
-7 14 13 14 17 0 23 -4 19 -14 -4 -11 -2 -11 8 -3 8 7 17 9 20 5 4 -3 7 -1 7
6 0 7 5 9 10 6 6 -4 8 -10 5 -15 -3 -5 -1 -12 5 -15 6 -4 9 -1 8 7 -2 7 6 13
17 13 11 1 26 4 33 8 6 5 12 4 12 -1 0 -12 63 -10 72 3 5 6 8 4 8 -5 0 -13 1
-13 10 0 7 11 10 11 10 2 0 -7 4 -11 9 -7 14 8 11 216 -3 208 -6 -3 -5 0 2 8
17 18 17 83 0 73 -10 -6 -10 -5 -1 7 16 20 15 241 -1 232 -6 -3 -5 0 2 8 6 7
12 28 12 47 0 24 -3 31 -12 26 -10 -6 -10 -5 -1 7 16 20 15 241 -1 232 -6 -3
-5 0 2 8 6 7 12 28 12 47 0 24 -3 31 -12 26 -10 -6 -10 -5 -1 7 16 20 15 241
-1 232 -6 -3 -5 0 2 8 17 18 17 83 0 73 -10 -6 -10 -5 -1 7 16 20 15 241 -1
232 -6 -3 -5 0 2 8 17 18 17 83 0 73 -10 -6 -10 -5 -1 7 16 20 15 241 -1 232
-6 -3 -5 0 2 8 6 7 12 28 12 47 0 24 -3 31 -12 26 -10 -6 -10 -5 -1 7 16 20
15 241 -1 232 -6 -3 -5 0 2 8 6 7 12 28 12 47 0 24 -3 31 -12 26 -10 -6 -10
-5 -1 7 16 20 15 149 -1 168 -8 11 -8 13 0 8 8 -5 12 6 11 32 -1 22 -4 38 -7
36 -4 -2 -7 2 -7 10 0 8 3 12 7 10 4 -2 7 2 7 10 0 8 -4 12 -9 9 -4 -3 -9 4
-10 15 0 12 -1 27 -2 34 -1 6 -8 18 -16 25 -13 12 -13 13 0 6 12 -7 13 -5 3 8
-7 8 -10 18 -6 21 3 4 -1 7 -10 7 -11 0 -15 7 -12 20 2 11 0 18 -4 16 -4 -3
-14 6 -21 19 -7 13 -18 21 -23 18 -6 -4 -8 0 -4 10 3 9 2 16 -2 14 -5 -1 -21
12 -36 28 -15 17 -24 24 -20 17 6 -11 3 -11 -13 -1 -12 7 -19 17 -16 21 3 4
-3 5 -12 1 -13 -5 -15 -3 -9 8 7 12 6 12 -11 -1 -10 -8 -16 -10 -12 -6 12 14
-25 36 -39 25 -7 -7 -14 -6 -19 2 -5 8 -3 10 7 4 8 -5 11 -4 6 1 -13 14 -4764
13 -4791 -1z m647 -396 c-5 -18 -3 -20 13 -12 10 5 28 8 39 7 11 -2 32 -5 48
-7 24 -4 26 -2 15 12 -12 14 -10 14 13 -1 17 -11 31 -13 40 -7 19 12 42 11 34
-1 -7 -11 23 -2 43 13 7 6 12 6 11 1 -4 -21 2 -35 11 -29 8 5 8 -17 1 -42 -3
-9 6 -17 14 -15 5 2 2 -5 -8 -16 -9 -10 -14 -22 -10 -26 11 -11 10 -30 -2 -38
-6 -5 -5 -8 3 -8 9 0 10 -5 3 -18 -7 -13 -6 -23 1 -30 9 -9 9 -12 -1 -12 -7 0
-9 -5 -6 -10 4 -6 12 -7 18 -3 7 3 4 -3 -6 -14 -9 -11 -14 -23 -10 -27 11 -11
10 -30 -2 -38 -6 -5 -5 -8 3 -8 9 0 10 -5 3 -19 -6 -10 -7 -21 -4 -25 12 -11
12 -36 0 -29 -6 4 -8 0 -4 -9 6 -17 -8 -19 -32 -4 -11 7 -13 5 -8 -7 6 -16 4
-15 -20 0 -26 17 -27 17 -20 -2 7 -19 6 -19 -7 -2 -12 15 -14 15 -19 2 -4 -8
-13 -12 -22 -9 -8 3 -13 9 -10 13 2 4 -3 8 -11 8 -9 0 -13 -6 -9 -16 4 -12 2
-12 -9 2 -12 15 -14 15 -19 2 -4 -8 -13 -12 -22 -9 -8 3 -12 11 -8 18 4 7 1 6
-7 -1 -11 -10 -17 -10 -30 2 -14 13 -17 13 -17 0 0 -8 5 -11 10 -8 6 3 7 1 3
-6 -6 -9 -11 -9 -22 0 -11 9 -18 8 -31 -2 -16 -13 -17 -12 -4 4 10 13 11 17 1
17 -9 0 -11 11 -7 35 4 24 2 33 -5 29 -7 -5 -8 -2 -3 5 4 7 7 53 7 102 -1 63
3 89 11 90 7 0 3 4 -8 9 -11 5 -15 9 -10 9 6 1 9 26 7 62 -3 40 0 59 6 55 6
-3 13 -2 17 4 4 6 10 8 15 5 4 -3 10 2 14 10 8 23 15 18 9 -6z m-502 -11 c0
-10 2 -10 5 -1 4 8 13 9 29 3 12 -5 25 -7 28 -4 11 12 52 12 59 1 6 -9 8 -9 8
1 0 6 5 12 11 12 5 0 7 -5 3 -11 -5 -8 -1 -8 14 0 26 14 35 14 27 1 -4 -6 4
-6 22 1 20 7 29 7 32 -2 2 -8 6 -7 12 2 7 11 9 11 9 1 0 -7 5 -10 10 -7 6 3
10 -1 10 -9 0 -9 -6 -16 -12 -17 -10 0 -10 -2 0 -6 6 -2 12 -11 12 -19 0 -9
-5 -12 -12 -8 -10 5 -10 4 -1 -6 10 -11 10 -17 0 -29 -9 -12 -9 -13 1 -7 7 4
12 1 12 -9 0 -10 -5 -13 -12 -9 -7 5 -8 3 -2 -7 5 -8 10 -25 11 -39 3 -20 1
-22 -7 -10 -6 9 -10 10 -10 3 0 -6 4 -14 10 -18 5 -3 7 -12 4 -19 -3 -8 0 -17
6 -21 8 -5 8 -11 -1 -21 -6 -8 -8 -14 -4 -14 4 0 1 -8 -6 -17 -8 -9 -9 -14 -3
-10 7 4 11 -5 12 -25 1 -24 -2 -28 -8 -18 -6 9 -10 10 -10 3 0 -6 5 -15 10
-18 8 -5 7 -12 -2 -23 -11 -13 -11 -14 1 -8 9 6 12 4 9 -5 -3 -8 -14 -14 -25
-15 -12 -1 -28 -4 -37 -7 -8 -3 -18 -1 -22 5 -4 7 -10 5 -16 -6 -6 -12 -13
-14 -21 -8 -16 13 -97 20 -97 9 0 -5 -7 -4 -15 3 -8 7 -15 8 -15 2 0 -17 -41
-22 -47 -5 -5 12 -7 12 -14 1 -7 -11 -9 -11 -9 1 0 7 -6 11 -14 8 -10 -4 -12
0 -9 14 3 11 10 16 17 12 6 -4 5 1 -3 10 -8 10 -11 20 -8 24 4 3 2 15 -4 26
-8 14 -8 18 0 13 7 -5 9 3 5 23 -4 20 -1 37 7 48 8 9 9 14 3 10 -15 -9 -15 73
0 92 9 12 8 13 -3 6 -11 -6 -13 -3 -9 12 3 11 1 28 -5 38 -6 12 -6 16 0 12 6
-4 11 4 11 18 0 14 -4 22 -9 19 -5 -3 -6 2 -3 11 4 9 13 14 20 11 7 -3 16 -1
19 4 9 14 25 12 26 -2z"/>
<path d="M3992 2754 c-7 -8 -18 -11 -24 -8 -21 13 -67 12 -62 -1 6 -15 -27
-15 -39 0 -4 6 -11 3 -18 -8 -8 -13 -14 -15 -23 -7 -10 7 -17 6 -26 -5 -7 -8
-23 -13 -36 -11 -16 3 -21 1 -17 -9 3 -10 -1 -13 -16 -10 -12 2 -21 0 -21 -5
0 -5 -7 -6 -17 -3 -11 4 -14 3 -9 -6 6 -8 2 -11 -10 -9 -11 2 -18 -2 -17 -9 2
-7 -4 -10 -13 -6 -9 3 -27 -6 -45 -23 -16 -15 -29 -24 -29 -19 0 5 -7 -1 -16
-13 -8 -12 -20 -22 -26 -22 -6 0 -17 -8 -25 -17 -9 -11 -11 -12 -7 -3 4 8 -9
-1 -28 -20 -19 -19 -33 -38 -31 -42 2 -5 -1 -8 -7 -8 -13 0 -46 -30 -33 -30 4
0 0 -5 -10 -11 -9 -6 -15 -14 -12 -20 4 -5 0 -9 -7 -9 -7 0 -19 -9 -26 -21
-11 -17 -11 -20 0 -14 7 5 4 -2 -7 -13 -36 -38 -45 -51 -45 -66 0 -7 -7 -16
-15 -20 -8 -3 -14 -9 -13 -13 3 -17 -15 -63 -23 -58 -4 3 -6 -3 -4 -14 2 -11
-3 -22 -12 -25 -13 -5 -13 -9 -2 -23 8 -9 9 -14 3 -10 -7 4 -15 0 -18 -9 -4
-9 -2 -13 5 -8 6 3 4 -4 -4 -17 -8 -13 -13 -32 -12 -41 2 -10 0 -18 -5 -18 -4
0 -6 -9 -3 -20 3 -11 1 -20 -5 -20 -5 0 -9 -22 -8 -50 1 -27 -1 -50 -4 -50 -7
0 -4 -86 4 -106 5 -12 2 -15 -11 -10 -15 6 -15 5 -2 -11 10 -11 15 -36 15 -64
-1 -31 3 -45 10 -42 7 2 10 -6 9 -21 -2 -13 3 -27 10 -30 8 -3 11 -13 8 -27
-4 -13 0 -25 9 -30 9 -5 14 -22 13 -43 0 -19 3 -32 7 -30 4 3 8 0 8 -6 0 -6 5
-8 11 -4 8 4 9 0 4 -15 -4 -14 -1 -23 9 -27 9 -3 16 -10 16 -16 0 -5 -6 -6
-12 -3 -7 4 -2 -3 12 -14 21 -18 22 -20 5 -15 -17 6 -17 4 3 -11 13 -10 21
-23 18 -32 -3 -8 -1 -11 4 -8 6 3 10 -1 10 -10 0 -9 4 -14 9 -10 6 3 8 -4 6
-15 -2 -13 1 -20 11 -20 8 0 12 -4 9 -10 -3 -5 -1 -10 5 -10 7 0 9 -7 6 -16
-3 -8 -2 -12 4 -9 9 6 14 -8 11 -28 -1 -5 3 -6 9 -2 5 3 10 -1 10 -9 0 -9 7
-16 17 -16 9 0 13 -3 10 -7 -4 -3 1 -12 11 -20 16 -12 16 -13 -3 -7 -14 4 -11
0 8 -14 16 -11 28 -22 28 -26 -3 -20 1 -25 16 -19 10 4 14 2 10 -4 -8 -13 2
-45 12 -39 4 3 13 -4 20 -16 9 -15 10 -18 0 -13 -8 5 -10 4 -5 -3 4 -7 14 -12
22 -12 8 0 12 -4 9 -10 -3 -5 -1 -10 5 -10 7 0 10 -7 6 -15 -3 -8 0 -14 7 -12
7 1 11 -4 9 -11 -2 -10 4 -12 20 -7 15 4 18 3 10 -2 -16 -12 24 -57 41 -46 8
5 8 2 -1 -9 -10 -13 -9 -16 8 -21 11 -3 20 -13 20 -22 0 -9 5 -13 10 -10 6 3
10 -1 10 -9 0 -9 7 -16 15 -16 8 0 15 -5 15 -12 0 -7 12 -23 27 -35 14 -13 24
-23 21 -23 -3 0 9 -16 28 -35 18 -19 38 -35 44 -35 6 0 8 -5 5 -10 -3 -5 -1
-10 5 -10 6 0 8 -5 5 -10 -3 -6 -1 -10 5 -10 6 0 8 -5 4 -13 -5 -8 -2 -8 9 2
15 12 17 11 17 -2 0 -9 9 -19 21 -22 17 -6 18 -9 7 -23 -7 -10 -9 -14 -4 -10
11 9 48 -10 41 -22 -3 -5 4 -11 15 -15 11 -3 20 -13 20 -21 0 -8 4 -13 9 -9 6
3 15 -4 21 -15 6 -11 16 -17 22 -14 7 4 8 3 4 -4 -4 -7 -2 -12 4 -12 6 0 8 -4
5 -10 -6 -9 8 -14 28 -11 4 0 7 -4 7 -10 0 -5 5 -7 12 -3 6 4 8 3 5 -3 -8 -12
27 -56 37 -46 3 3 6 -2 6 -11 0 -13 5 -16 17 -12 10 4 15 4 11 1 -8 -9 75 -94
86 -87 5 3 6 -2 3 -12 -4 -9 -3 -14 2 -11 5 3 12 1 16 -5 4 -6 11 -7 17 -4 6
4 9 3 6 -2 -3 -5 3 -17 14 -27 10 -9 18 -15 18 -12 0 3 6 0 14 -7 8 -7 12 -16
9 -20 -2 -5 3 -8 11 -8 20 0 48 -29 39 -43 -4 -6 0 -8 10 -4 10 3 17 3 17 -2
0 -4 11 -14 25 -21 13 -7 22 -17 19 -21 -3 -5 2 -6 10 -3 9 3 16 1 16 -6 0
-14 19 -34 43 -43 11 -4 17 -2 17 8 0 9 6 12 17 8 11 -4 14 -3 9 5 -4 7 -1 12
7 12 8 0 22 11 31 25 9 14 23 25 31 25 8 0 15 7 15 15 0 8 6 14 13 13 6 -2 11
3 9 10 -1 6 1 11 5 11 22 -4 33 2 27 13 -5 7 -2 9 9 5 11 -4 18 1 22 14 4 10
9 18 13 16 4 -2 15 4 25 15 9 10 14 18 10 18 -5 0 3 6 17 13 14 8 24 19 22 26
-1 7 2 10 7 7 5 -4 16 1 24 9 9 8 20 15 26 15 6 0 11 6 11 14 0 8 20 29 44 47
25 17 47 38 50 45 3 8 12 14 20 14 10 0 13 6 9 15 -3 10 0 15 8 13 8 -2 13 3
11 10 -2 10 8 15 28 14 3 0 11 6 18 14 7 8 9 14 5 14 -4 0 13 19 37 42 25 23
44 45 42 50 -1 4 1 7 5 6 16 -3 43 14 37 24 -3 5 3 12 14 15 14 3 19 10 15 21
-4 9 -2 13 4 9 5 -4 19 1 29 9 10 9 12 13 4 9 -8 -4 -4 3 10 14 14 11 21 21
15 21 -5 1 3 8 18 16 15 8 26 18 23 22 -2 4 2 13 10 20 8 7 14 9 14 5 0 -4 8
6 16 24 9 18 21 31 28 30 6 -1 10 4 8 11 -1 6 5 12 15 12 9 0 13 3 10 7 -4 3
2 13 13 20 11 8 18 19 15 24 -4 5 1 9 10 9 9 0 14 3 12 8 -5 9 30 42 37 34 5
-5 10 22 7 41 0 4 2 6 6 6 24 -4 31 3 28 28 -2 16 -2 22 1 16 10 -22 22 -14
35 21 7 19 17 34 23 33 6 -1 10 4 8 12 -2 8 3 11 11 8 10 -4 13 2 11 19 -1 13
3 22 9 21 7 -1 11 4 9 12 -2 9 3 11 13 7 9 -3 14 -2 10 3 -3 5 1 16 9 24 8 8
12 17 9 21 -4 3 -1 6 6 6 7 0 9 5 5 12 -5 7 -2 9 9 5 11 -4 15 -1 12 13 -2 12
5 26 18 35 12 8 16 15 9 15 -7 0 -10 5 -7 10 4 6 11 7 17 4 7 -5 9 0 6 14 -5
16 -2 20 14 17 16 -4 18 -2 8 10 -8 10 -9 15 -2 15 7 0 9 7 5 17 -4 11 -3 14
5 9 11 -6 17 6 13 27 -1 4 5 10 13 13 8 3 12 12 9 20 -3 9 2 14 13 14 15 0 16
2 5 9 -9 6 -10 11 -2 15 6 4 11 16 11 27 0 11 3 18 8 16 4 -3 8 8 9 24 1 16 8
39 15 51 7 13 11 27 10 32 -2 4 3 15 10 24 10 12 10 14 1 8 -9 -5 -11 -2 -7 8
3 9 9 14 13 12 10 -7 7 238 -4 246 -6 5 -5 8 3 8 9 0 10 5 2 19 -5 11 -7 27
-3 37 5 13 3 15 -7 9 -10 -6 -12 -4 -7 8 4 10 1 17 -6 17 -8 0 -8 3 2 9 9 6
10 11 3 15 -6 4 -8 14 -5 23 4 11 3 14 -5 9 -10 -6 -14 10 -12 49 1 3 -6 13
-15 21 -8 9 -12 20 -9 26 4 6 1 14 -5 18 -7 4 -13 16 -14 28 0 11 -5 18 -9 16
-4 -3 -8 3 -8 13 0 10 -9 24 -21 31 -16 11 -18 16 -9 28 10 11 10 14 1 14 -7
0 -9 4 -6 10 4 6 -1 7 -11 3 -12 -4 -15 -3 -10 5 4 7 1 12 -8 12 -10 0 -13 6
-10 15 4 8 -1 17 -10 21 -9 3 -16 12 -16 20 0 8 -5 14 -11 14 -5 0 -7 6 -3 13
4 6 4 9 -1 5 -11 -11 -36 12 -28 25 3 5 2 8 -3 5 -5 -3 -14 0 -21 7 -10 11
-10 15 0 18 7 3 2 6 -10 6 -12 1 -24 9 -28 21 -3 11 -9 19 -13 18 -16 -3 -42
15 -42 31 0 14 -2 14 -10 1 -6 -10 -10 -11 -10 -2 0 6 -7 12 -16 12 -8 0 -12
5 -9 10 3 6 -1 10 -9 10 -9 0 -16 5 -16 10 0 6 -7 10 -15 10 -8 0 -15 4 -15 9
0 4 -8 8 -17 8 -35 0 -44 3 -38 13 5 9 -15 15 -37 11 -5 0 -8 4 -8 10 0 5 -4
8 -9 4 -5 -3 -12 -1 -16 4 -3 5 -14 8 -25 6 -12 -2 -18 0 -15 4 3 5 -2 12 -11
15 -22 8 -26 8 -19 -4 3 -6 -1 -7 -9 -4 -9 3 -16 11 -16 18 0 6 -5 4 -10 -4
-5 -8 -10 -10 -10 -4 0 7 -8 11 -17 10 -10 0 -17 5 -15 12 1 8 -2 11 -8 7 -6
-3 -8 -10 -5 -15 6 -9 -64 -4 -73 5 -3 2 -13 0 -23 -5 -11 -7 -20 -7 -24 0 -4
6 -15 6 -31 0 -31 -12 -37 -12 -30 -2 2 4 -4 8 -14 8 -10 0 -17 -3 -14 -7 2
-4 -3 -9 -11 -13 -8 -3 -15 0 -15 6 0 7 -5 6 -15 -2 -8 -6 -19 -9 -25 -5 -5 3
-10 2 -10 -4 0 -6 -7 -7 -17 -4 -10 4 -14 2 -10 -4 4 -6 1 -11 -6 -10 -36 1
-57 -4 -52 -13 3 -6 -1 -7 -9 -4 -9 3 -16 1 -16 -6 0 -6 -4 -8 -10 -5 -5 3
-10 1 -10 -5 0 -7 -7 -10 -15 -6 -8 3 -15 1 -15 -4 0 -6 -6 -9 -12 -8 -7 2
-12 -2 -11 -8 1 -6 -9 -10 -22 -8 -17 1 -25 -3 -25 -12 0 -9 -4 -13 -9 -9 -6
3 -14 -3 -20 -12 -5 -10 -12 -17 -15 -15 -15 6 -19 1 -6 -8 12 -8 9 -10 -13
-10 -16 0 -26 -4 -22 -10 6 -9 -8 -14 -28 -11 -4 0 -6 -2 -6 -6 3 -19 -2 -36
-8 -30 -3 4 -12 2 -20 -5 -8 -6 -13 -7 -12 -2 4 23 -3 33 -22 29 -15 -3 -19 0
-15 10 4 11 -2 15 -21 15 -23 0 -24 2 -12 17 8 9 9 14 2 10 -6 -4 -18 0 -27 9
-9 8 -21 12 -27 8 -8 -4 -9 -3 -5 4 4 7 1 12 -9 12 -10 0 -13 5 -9 12 4 6 3 8
-3 5 -6 -4 -16 0 -23 8 -7 8 -21 15 -31 15 -11 0 -19 6 -19 13 0 8 -4 7 -10
-3 -6 -10 -10 -11 -10 -2 0 6 -7 12 -16 12 -9 0 -23 8 -31 18 -9 10 -12 11 -7
2 5 -12 4 -12 -6 -3 -7 6 -19 9 -28 6 -10 -4 -13 -2 -8 5 4 7 2 12 -3 12 -6 0
-11 -5 -11 -12 0 -6 -6 -4 -13 7 -8 10 -19 15 -25 11 -7 -4 -12 -3 -12 3 0 11
-19 9 -39 -3 -10 -7 -12 -5 -6 4 6 9 2 10 -15 5 -15 -5 -20 -4 -16 4 4 6 0 11
-9 11 -10 0 -13 -5 -9 -12 5 -7 3 -8 -7 -2 -20 12 -39 14 -39 3 0 -5 -5 -9
-11 -9 -5 0 -8 4 -4 9 9 16 -9 20 -23 5z"/>
<path d="M5169 523 c-13 -16 -12 -17 4 -4 9 7 17 15 17 17 0 8 -8 3 -21 -13z"/>
</g>
</svg>
